<svg xmlns="http://www.w3.org/2000/svg" width="301.991" height="47" viewBox="0 0 301.991 47">
  <g id="ac-logo" transform="translate(0 0.045)">
    <g id="Layer_1" data-name="Layer 1" transform="translate(0 -0.045)">
      <path id="Path_15" data-name="Path 15" d="M276.873,45.428H263.15L252.388,30l-.447.135V45.423H231.28l-2.262-4.259H211.77l-2.129,4.274h-11.7c.343-.967.634-1.789.969-2.736-17.5,10.76-39.435.074-38.793-20.51a13.736,13.736,0,0,1-9.06,7.018c3.767,5.5,7.787,10.617,11.643,16.187H148.9l-10.6-15.18-.479.155V45.462h-39.6V11.3H90.076a55.354,55.354,0,0,0-.138,6.719c-.039,2.259-.009,4.519-.009,6.78v6.78c0,2.26-.026,4.519-.033,6.78s0,6.736,0,6.736l-10.941.209V11.628c-1.543-.532-21.826-.7-24.573-.259v8.69l15.7.028.254,9.474-16.1.122V45.363H33.488q-1.034-1.95-2.239-4.219H13.893L11.8,45.406H0L21.468.173l2.11-.133L42.9,40.4l.372-.087V1.512L45.782,1.4l100-.039s8.484,1.24,11.741,4.508c2.516,2.522,3.538,5.615,3.851,9.434C165.449,5.838,172.507.8,182.427.044A24.85,24.85,0,0,1,203.347,8.2l-7.505,7.088c-1.046-.767-1.955-1.476-2.905-2.126a14.745,14.745,0,0,0-11.484-2.415A12.618,12.618,0,0,0,171.545,25.5c1.023,5.944,4.9,10.051,10.251,10.764a15.865,15.865,0,0,0,12.175-3.17c.518-.4,1.043-.786,1.571-1.172.051-.037.138-.026.425-.074l5.668,5.367L219.263.142l2.152-.155,19.311,40.33.374-.079V1.512c.909-.042,1.617-.1,2.326-.1,5.191-.009,10.387.034,15.572-.017a18.45,18.45,0,0,1,11.2,3.143,3.409,3.409,0,0,0,.735.259c.109-1.05.211-2.034.31-2.983,1.583-.49,28.217-.633,30.752-.167V11.1h-9.913V45.394H281.07c-.079-2.758-.028-5.567-.036-8.372-.009-2.842,0-5.685,0-8.527V11.489l-6.046-.2s2.171,16.355-9.842,17.961ZM126.105,28.374H109.312v7.491l17.473-.144V11.391l-17.446.127V18.67l16.767.171Zm125.89-17.657c0,1.845-.011,3.433,0,5.02.012,1.56.047,3.118.073,4.77,3.039,0,5.8.088,8.55-.051a4.13,4.13,0,0,0,2.5-1.115,5.09,5.09,0,0,0,1.24-5.426,4.206,4.206,0,0,0-4-3.161c-2.673-.129-5.352-.04-8.36-.04ZM137.982,20.441c3.008,0,5.915.138,8.8-.047,2.1-.133,3.493-2.121,3.594-4.541s-1.085-4.381-3.192-4.853c-3.009-.674-6.057-.257-9.2-.31ZM27.4,33.037c-1.639-3.619-3.175-7.014-4.908-10.84-1.69,3.913-3.566,7.15-4.853,10.84Zm187.965-.081h9.767L220.33,22.321Z" transform="translate(0 0.045)"/>
    </g>
  </g>
</svg>
