<svg xmlns="http://www.w3.org/2000/svg" width="22.611" height="25.14" viewBox="0 0 22.611 25.14">
  <g id="ac-sheild" transform="translate(-1305.716 -552.519)">
    <path id="Icon_map-sheild" data-name="Icon map-sheild" d="M22.355,9.006a10.136,10.136,0,0,1,1.539-4.633L20.474,1.08a6.283,6.283,0,0,1-3.7,1.479,6.59,6.59,0,0,1-3.628-.7,7.058,7.058,0,0,1-3.634.7A6.729,6.729,0,0,1,5.982,1.216L2.554,4.508a9.92,9.92,0,0,1,1.405,4.5,7.848,7.848,0,0,1-.649,3q-.327.908-.57,1.843a8.969,8.969,0,0,0-.22,1.24,5.912,5.912,0,0,0,1.2,3.7,13.882,13.882,0,0,0,3.153,2.653,20.877,20.877,0,0,0,3.7,1.509l.719.322c.226.1.468.206.721.316a2.985,2.985,0,0,1,1.13,1.008A3.251,3.251,0,0,1,14.3,23.584q.468-.193.927-.4l.543-.234c.185-.088.428-.189.722-.3q.547-.208,1.1-.4a9.266,9.266,0,0,0,1.85-.806,15.887,15.887,0,0,0,3.114-2.615,5.826,5.826,0,0,0,1.238-3.734A13.01,13.01,0,0,0,22.97,12.1a7.815,7.815,0,0,1-.615-3.1Z" transform="translate(1303.794 552.109)" fill="none" stroke="#000" stroke-width="1"/>
    <path id="Icon_awesome-check" data-name="Icon awesome-check" d="M4.431,14.114.191,9.874a.652.652,0,0,1,0-.922l.922-.922a.652.652,0,0,1,.922,0l2.856,2.856,6.117-6.117a.652.652,0,0,1,.922,0l.922.922a.652.652,0,0,1,0,.922l-7.5,7.5A.652.652,0,0,1,4.431,14.114Z" transform="translate(1310.478 555.504)"/>
  </g>
</svg>
