<svg xmlns="http://www.w3.org/2000/svg" width="7.336" height="6.488" viewBox="0 0 7.336 6.488">
  <path id="Icon_awesome-expand-arrows-alt" data-name="Icon awesome-expand-arrows-alt" d="M7.336,6.768V8.39a.328.328,0,0,1-.115.246.42.42,0,0,1-.278.1H5.109a.345.345,0,0,1-.278-.594l.593-.524L3.668,6.067,1.912,7.621l.593.523a.345.345,0,0,1-.278.594H.393a.42.42,0,0,1-.278-.1A.328.328,0,0,1,0,8.39V6.768a.4.4,0,0,1,.671-.246l.593.524L3.021,5.494,1.264,3.94l-.592.526A.4.4,0,0,1,0,4.219V2.6a.328.328,0,0,1,.115-.246.42.42,0,0,1,.278-.1H2.227a.345.345,0,0,1,.278.594l-.593.524L3.668,4.92,5.424,3.367l-.593-.523a.345.345,0,0,1,.278-.594H6.943a.42.42,0,0,1,.278.1.328.328,0,0,1,.115.246V4.219a.4.4,0,0,1-.671.246l-.593-.524L4.315,5.494,6.072,7.048l.592-.524A.4.4,0,0,1,7.336,6.768Z" transform="translate(0 -2.25)" fill="#f5e7a7"/>
</svg>
