<svg xmlns="http://www.w3.org/2000/svg" width="45.864" height="40.768" viewBox="0 0 45.864 40.768">
  <path id="Icon_awesome-exclamation-triangle" data-name="Icon awesome-exclamation-triangle" d="M45.347,35.036a3.824,3.824,0,0,1-3.311,5.732H3.826A3.824,3.824,0,0,1,.516,35.036L19.621,1.91a3.824,3.824,0,0,1,6.621,0ZM22.932,28.187a3.663,3.663,0,1,0,3.663,3.663A3.663,3.663,0,0,0,22.932,28.187ZM19.454,15.021l.591,10.829a.955.955,0,0,0,.954.9h3.865a.955.955,0,0,0,.954-.9l.591-10.829a.956.956,0,0,0-.954-1.008H20.408a.955.955,0,0,0-.954,1.008Z" fill="#f4e294"/>
</svg>
