<svg xmlns="http://www.w3.org/2000/svg" width="26.028" height="24.455" viewBox="0 0 26.028 24.455">
  <g id="Icon_ionic-ios-chatboxes" data-name="Icon ionic-ios-chatboxes" transform="translate(-10.186 -6.481)">
    <path id="Path_198" data-name="Path 198" d="M31.774,11.981H14.633a2.873,2.873,0,0,0-2.947,2.783V26.035a2.867,2.867,0,0,0,2.947,2.776h9.808a.871.871,0,0,1,.588.234L29.9,33.289c.271.248.719.146.719-.212v-3.7c0-.438.294-.577.758-.577h.077c1.624,0,3.257-1.234,3.257-2.776V14.764A2.856,2.856,0,0,0,31.774,11.981Z" transform="translate(0 -4)" fill="none" stroke="#f4e294" stroke-width="3"/>
  </g>
</svg>
