<svg xmlns="http://www.w3.org/2000/svg" width="130" height="90.956" viewBox="0 0 130 90.956">
  <g id="freepik--bubble-speech--inject-44" transform="translate(-65.462 -85.632)">
    <path id="Path_196" data-name="Path 196" d="M165.2,90.76a5.216,5.216,0,0,1,5.211,5.224V135.67a5.216,5.216,0,0,1-5.211,5.211H151.982a4.054,4.054,0,0,0-4.054,4.054v3.843l-8.084-6.924a4.054,4.054,0,0,0-2.638-.973H94.865a5.216,5.216,0,0,1-5.211-5.211V95.985a5.216,5.216,0,0,1,5.211-5.211H165.2m0-4.054H94.865A9.292,9.292,0,0,0,85.6,95.985V135.67a9.292,9.292,0,0,0,9.265,9.265h42.342l14.775,12.654V144.935H165.2a9.292,9.292,0,0,0,9.265-9.265V95.985A9.292,9.292,0,0,0,165.2,86.72Z" transform="translate(21 19)" fill="#f4e294"/>
    <path id="Path_197" data-name="Path 197" d="M92.858,89.885a4.087,4.087,0,0,0-4.082,4.093V125.07a4.087,4.087,0,0,0,4.082,4.082h10.354a3.176,3.176,0,0,1,3.176,3.176v3.011l6.333-5.425a3.176,3.176,0,0,1,2.067-.762h33.173a4.087,4.087,0,0,0,4.082-4.082V93.978a4.087,4.087,0,0,0-4.082-4.082h-55.1m0-3.176h55.1a7.28,7.28,0,0,1,7.258,7.258V125.07a7.28,7.28,0,0,1-7.258,7.258H114.788l-11.576,9.914v-9.914H92.858A7.28,7.28,0,0,1,85.6,125.07V93.978A7.28,7.28,0,0,1,92.858,86.72Z" transform="translate(-20.138 -1.088)" fill="#f4e294"/>
  </g>
</svg>
