<svg xmlns="http://www.w3.org/2000/svg" width="13.92" height="14.5" viewBox="0 0 13.92 14.5">
  <path id="delete-svgrepo-com" d="M132.205,113.3h-.145a.145.145,0,0,0,.145-.145v.145h5.51v-.145a.145.145,0,0,0,.145.145h-.145v1.305h1.305v-1.45a1.161,1.161,0,0,0-1.16-1.16h-5.8a1.161,1.161,0,0,0-1.16,1.16v1.45h1.3Zm9.135,1.305H128.58a.579.579,0,0,0-.58.58v.58a.145.145,0,0,0,.145.145h1.095l.448,9.479a1.161,1.161,0,0,0,1.158,1.106h8.229a1.159,1.159,0,0,0,1.158-1.106l.448-9.479h1.095a.145.145,0,0,0,.145-.145v-.58A.579.579,0,0,0,141.34,114.61Zm-2.405,10.585h-7.95l-.439-9.28h8.827Z" transform="translate(-128 -112)"/>
</svg>
