<svg xmlns="http://www.w3.org/2000/svg" width="43.575" height="33.5" viewBox="0 0 43.575 33.5">
  <path id="Icon_awesome-money-bill-wave-alt" data-name="Icon awesome-money-bill-wave-alt" d="M40.351,3.829A17.963,17.963,0,0,0,32.789,2.25c-8,0-16,4.383-24,4.383a18.327,18.327,0,0,1-6.019-.965,2.067,2.067,0,0,0-.672-.114A2.153,2.153,0,0,0,0,7.791V30.1A2.254,2.254,0,0,0,1.224,32.17a17.953,17.953,0,0,0,7.562,1.58c8,0,16-4.384,24-4.384a18.327,18.327,0,0,1,6.019.965,2.067,2.067,0,0,0,.672.114,2.153,2.153,0,0,0,2.095-2.237V5.9a2.256,2.256,0,0,0-1.224-2.072ZM20.787,24.75c-2.871,0-5.2-3.023-5.2-6.75s2.327-6.75,5.2-6.75,5.2,3.022,5.2,6.75S23.656,24.75,20.787,24.75Z" transform="translate(1 -1.25)" fill="none" stroke="#f4e294" stroke-width="2" opacity="0.37"/>
</svg>
