<svg xmlns="http://www.w3.org/2000/svg" width="791" height="519" viewBox="0 0 791 519">
  <g id="Group_309" data-name="Group 309" transform="translate(-490 -397.731)">
    <rect id="Rectangle_77" data-name="Rectangle 77" width="791" height="519" rx="10" transform="translate(490 397.731)" fill="#fefcf3"/>
    <line id="Line_56" data-name="Line 56" y2="395" transform="translate(571.692 441.231)" fill="none" stroke="#ebebeb" stroke-width="1"/>
    <path id="Path_367" data-name="Path 367" d="M0,0H660.223" transform="translate(571.692 803.038)" fill="none" stroke="#ebebeb" stroke-width="1"/>
    <line id="Line_58" data-name="Line 58" x2="660.223" transform="translate(571.692 740.161)" fill="none" stroke="#ebebeb" stroke-width="1"/>
    <line id="Line_59" data-name="Line 59" x2="660.223" transform="translate(571.692 693.444)" fill="none" stroke="#ebebeb" stroke-width="1"/>
    <line id="Line_60" data-name="Line 60" x2="660.223" transform="translate(571.692 638.648)" fill="none" stroke="#ebebeb" stroke-width="1"/>
    <line id="Line_61" data-name="Line 61" x2="660.223" transform="translate(571.692 583.851)" fill="none" stroke="#ebebeb" stroke-width="1"/>
    <line id="Line_62" data-name="Line 62" x2="660.223" transform="translate(571.692 525.469)" fill="none" stroke="#ebebeb" stroke-width="1"/>
    <line id="Line_63" data-name="Line 63" x2="660.223" transform="translate(571.692 471.846)" fill="none" stroke="#ebebeb" stroke-width="1"/>
    <text id="_0" data-name="0" transform="translate(547 840.731)" fill="#707070" font-size="11" font-family="Poppins-Regular, Poppins" letter-spacing="0.02em"><tspan x="0" y="0">0</tspan></text>
    <text id="Jan" transform="translate(562 878.731)" fill="#707070" font-size="11" font-family="Poppins-Regular, Poppins" letter-spacing="0.02em"><tspan x="0" y="0">Jan</tspan></text>
    <text id="Feb" transform="translate(621 878.731)" fill="#707070" font-size="11" font-family="Poppins-Regular, Poppins" letter-spacing="0.02em"><tspan x="0" y="0">Feb</tspan></text>
    <text id="Mar" transform="translate(688 878.731)" fill="#707070" font-size="11" font-family="Poppins-Regular, Poppins" letter-spacing="0.02em"><tspan x="0" y="0">Mar</tspan></text>
    <text id="April" transform="translate(756 878.731)" fill="#707070" font-size="11" font-family="Poppins-Regular, Poppins" letter-spacing="0.02em"><tspan x="0" y="0">April</tspan></text>
    <text id="May" transform="translate(828 878.731)" fill="#707070" font-size="11" font-family="Poppins-Regular, Poppins" letter-spacing="0.02em"><tspan x="0" y="0">May</tspan></text>
    <text id="Jun" transform="translate(890 878.731)" fill="#707070" font-size="11" font-family="Poppins-Regular, Poppins" letter-spacing="0.02em"><tspan x="0" y="0">Jun</tspan></text>
    <text id="Jul" transform="translate(951 878.731)" fill="#707070" font-size="11" font-family="Poppins-Regular, Poppins" letter-spacing="0.02em"><tspan x="0" y="0">Jul</tspan></text>
    <text id="Aug" transform="translate(1008 878.731)" fill="#707070" font-size="11" font-family="Poppins-Regular, Poppins" letter-spacing="0.02em"><tspan x="0" y="0">Aug</tspan></text>
    <text id="Sep" transform="translate(1068 878.731)" fill="#707070" font-size="11" font-family="Poppins-Regular, Poppins" letter-spacing="0.02em"><tspan x="0" y="0">Sep</tspan></text>
    <text id="Oct" transform="translate(1116 878.731)" fill="#707070" font-size="11" font-family="Poppins-Regular, Poppins" letter-spacing="0.02em"><tspan x="0" y="0">Oct</tspan></text>
    <text id="Nov" transform="translate(1169 878.731)" fill="#707070" font-size="11" font-family="Poppins-Regular, Poppins" letter-spacing="0.02em"><tspan x="0" y="0">Nov</tspan></text>
    <text id="Dec" transform="translate(1228 878.731)" fill="#707070" font-size="11" font-family="Poppins-Regular, Poppins" letter-spacing="0.02em"><tspan x="0" y="0">Dec</tspan></text>
    <text id="_100" data-name="100" transform="translate(536 803.731)" fill="#707070" font-size="11" font-family="Poppins-Regular, Poppins" letter-spacing="0.02em"><tspan x="0" y="0">100</tspan></text>
    <text id="_200" data-name="200" transform="translate(535 743.731)" fill="#707070" font-size="10" font-family="Poppins-Regular, Poppins" letter-spacing="0.02em"><tspan x="0" y="0">200</tspan></text>
    <text id="_300" data-name="300" transform="translate(533 694.731)" fill="#707070" font-size="11" font-family="Poppins-Regular, Poppins" letter-spacing="0.02em"><tspan x="0" y="0">300</tspan></text>
    <text id="_400" data-name="400" transform="translate(533 639.731)" fill="#707070" font-size="11" font-family="Poppins-Regular, Poppins" letter-spacing="0.02em"><tspan x="0" y="0">400</tspan></text>
    <text id="_500" data-name="500" transform="translate(533 584.731)" fill="#707070" font-size="11" font-family="Poppins-Regular, Poppins" letter-spacing="0.02em"><tspan x="0" y="0">500</tspan></text>
    <text id="_600" data-name="600" transform="translate(533 524.731)" fill="#707070" font-size="11" font-family="Poppins-Regular, Poppins" letter-spacing="0.02em"><tspan x="0" y="0">600</tspan></text>
    <text id="_700" data-name="700" transform="translate(533 474.731)" fill="#707070" font-size="11" font-family="Poppins-Regular, Poppins" letter-spacing="0.02em"><tspan x="0" y="0">700</tspan></text>
    <circle id="Ellipse_52" data-name="Ellipse 52" cx="3.692" cy="3.692" r="3.692" transform="translate(568.987 639.519)" fill="#f4e294"/>
    <circle id="Ellipse_53" data-name="Ellipse 53" cx="3.692" cy="3.692" r="3.692" transform="translate(634 593.089)" fill="#f4e294"/>
    <circle id="Ellipse_54" data-name="Ellipse 54" cx="3.692" cy="3.692" r="3.692" transform="translate(754.24 611.484)" fill="#f4e294"/>
    <circle id="Ellipse_55" data-name="Ellipse 55" cx="3.692" cy="3.692" r="3.692" transform="translate(851.002 583.252)" fill="#f4e294"/>
    <circle id="Ellipse_56" data-name="Ellipse 56" cx="3.692" cy="3.692" r="3.692" transform="translate(947.117 639.714)" fill="#f4e294"/>
    <circle id="Ellipse_57" data-name="Ellipse 57" cx="3.692" cy="3.692" r="3.692" transform="translate(1043.081 667.831)" fill="#f4e294"/>
    <circle id="Ellipse_58" data-name="Ellipse 58" cx="3.692" cy="3.692" r="3.692" transform="translate(1172.077 602.986)" fill="#f4e294"/>
    <circle id="Ellipse_59" data-name="Ellipse 59" cx="3.692" cy="3.692" r="3.692" transform="translate(1227.462 583.252)" fill="#f4e294"/>
    <g id="Group_79" data-name="Group 79" transform="translate(568.462 649.63)">
      <circle id="Ellipse_60" data-name="Ellipse 60" cx="3.692" cy="3.692" r="3.692" transform="translate(659 82.154)" fill="#02bc77"/>
      <circle id="Ellipse_61" data-name="Ellipse 61" cx="3.692" cy="3.692" r="3.692" transform="translate(470.714 55.385)" fill="#02bc77"/>
      <circle id="Ellipse_62" data-name="Ellipse 62" cx="3.692" cy="3.692" r="3.692" transform="translate(378.784)" fill="#02bc77"/>
      <circle id="Ellipse_63" data-name="Ellipse 63" cx="3.692" cy="3.692" r="3.692" transform="translate(285.848 26.769)" fill="#02bc77"/>
      <circle id="Ellipse_64" data-name="Ellipse 64" cx="3.692" cy="3.692" r="3.692" transform="translate(191.504 83.077)" fill="#02bc77"/>
      <circle id="Ellipse_65" data-name="Ellipse 65" cx="3.692" cy="3.692" r="3.692" transform="translate(63.615 62.77)" fill="#02bc77"/>
      <circle id="Ellipse_66" data-name="Ellipse 66" cx="3.692" cy="3.692" r="3.692" transform="translate(0 110.769)" fill="#02bc77"/>
    </g>
    <path id="Path_199" data-name="Path 199" d="M0,0H663.154" transform="translate(571.692 836.615)" fill="none" stroke="#efefef" stroke-width="1"/>
    <path id="Path_380" data-name="Path 380" d="M222.032,994.709s58.634-56.339,94.431-56.339,61.05,30.29,93.028,28.583,58.871-55.034,94.483-55.46,66.136-28.154,94.482-27.73,63.229,54.185,95.208,54.606c.736.01,1.472,0,2.386-.02,31.128-.829,63.706-27.5,92.1-26.857,29.059.655,93.755,55.46,93.755,55.46" transform="translate(350.122 -231.017)" fill="none" stroke="#02bc77" stroke-miterlimit="10" stroke-width="2"/>
    <path id="Path_379" data-name="Path 379" d="M223.031,751.291s57.534-55.923,95.222-55.923,70.352,28.518,92.873,28.518,54.242-27.621,91.294-28.518,70.7,56.024,98.305,55.923,75.417,26.775,93.708,26.775,55.995-52.408,93.71-54.185,94.433-29.732,95.161-28.518" transform="translate(350.045 -108.066)" fill="none" stroke="#f4e294" stroke-miterlimit="10" stroke-width="2"/>
    <g id="Group_841" data-name="Group 841">
      <path id="Path_380-2" data-name="Path 380" d="M0,14.32S59.292,4.507,95.6,5.2s62.016,7.071,94.443,7.359S249.578,3.007,285.7,3.615,352.685-.575,381.436.058s64.3,11.757,96.736,12.459,66.269-4.082,95.743-3.391,95.266,12.6,95.266,12.6" transform="matrix(-0.995, -0.105, 0.105, -0.995, 1234.131, 837.641)" fill="none" stroke="#ff9595" stroke-miterlimit="10" stroke-width="2"/>
      <circle id="Ellipse_67" data-name="Ellipse 67" cx="3.5" cy="3.5" r="3.5" transform="translate(1035 800.731)" fill="#ff9595"/>
      <circle id="Ellipse_68" data-name="Ellipse 68" cx="4" cy="4" r="4" transform="translate(1125 816.731)" fill="#ff9595"/>
      <circle id="Ellipse_69" data-name="Ellipse 69" cx="4" cy="4" r="4" transform="translate(1228 820.731)" fill="#ff9595"/>
      <ellipse id="Ellipse_70" data-name="Ellipse 70" cx="3.5" cy="4" rx="3.5" ry="4" transform="translate(898 795.731)" fill="#ff9595"/>
      <ellipse id="Ellipse_71" data-name="Ellipse 71" cx="3.5" cy="4" rx="3.5" ry="4" transform="translate(636 759.731)" fill="#ff9595"/>
    </g>
    <g id="Group_555" data-name="Group 555" transform="translate(567.198 682.731)">
      <path id="Path_380-3" data-name="Path 380" d="M0,39.542S61.127,21.158,98.321,20.7s63.325,8.7,96.557,7.757S256.246,10.479,293.25,9.89,362.069.232,391.52,0s65.5,16.151,98.728,15.874c.764-.006,1.529-.017,2.479-.037,32.346-.657,66.293-9.421,95.788-9.584,30.191-.166,97.216,16.16,97.216,16.16" transform="matrix(-0.985, 0.174, -0.174, -0.985, 682.179, 42.839)" fill="none" stroke="#ccc" stroke-miterlimit="10" stroke-width="2"/>
      <ellipse id="Ellipse_93" data-name="Ellipse 93" cx="4" cy="3.5" rx="4" ry="3.5" transform="translate(0.802 137)" fill="#ccc"/>
      <circle id="Ellipse_94" data-name="Ellipse 94" cx="3.5" cy="3.5" r="3.5" transform="translate(94.802 137)" fill="#ccc"/>
      <circle id="Ellipse_95" data-name="Ellipse 95" cx="4" cy="4" r="4" transform="translate(203.802 106)" fill="#ccc"/>
      <ellipse id="Ellipse_96" data-name="Ellipse 96" cx="3.5" cy="4" rx="3.5" ry="4" transform="translate(285.802 108)" fill="#ccc"/>
      <circle id="Ellipse_97" data-name="Ellipse 97" cx="4" cy="4" r="4" transform="translate(383.802 81)" fill="#ccc"/>
      <ellipse id="Ellipse_98" data-name="Ellipse 98" cx="3.5" cy="4" rx="3.5" ry="4" transform="translate(475.802 46)" fill="#ccc"/>
      <ellipse id="Ellipse_99" data-name="Ellipse 99" cx="3.5" cy="4" rx="3.5" ry="4" transform="translate(608.802 25)" fill="#ccc"/>
      <ellipse id="Ellipse_100" data-name="Ellipse 100" cx="3.5" cy="4" rx="3.5" ry="4" transform="translate(665.802 0)" fill="#ccc"/>
    </g>
  </g>
</svg>
