<svg id="icons8-home" xmlns="http://www.w3.org/2000/svg" width="18" height="18" viewBox="0 0 18 18">
  <g id="icons8-home-2" data-name="icons8-home" transform="translate(-4.769 -3.179)" fill="none">
    <path d="M21.519,21.18h-4.5a1.2,1.2,0,0,1-1.25-1.154V15.872a.964.964,0,0,0-1-.923h-2a.964.964,0,0,0-1,.923v4.154a1.2,1.2,0,0,1-1.25,1.154h-4.5a1.2,1.2,0,0,1-1.25-1.154V11.216A3.372,3.372,0,0,1,6.2,8.5L13.3,3.328a.8.8,0,0,1,.929,0L21.34,8.5a3.371,3.371,0,0,1,1.429,2.719v8.81A1.2,1.2,0,0,1,21.519,21.18Z" stroke="none"/>
    <path d="M 20.76931571960449 19.17957878112793 L 20.76931571960449 11.21536922454834 C 20.76931571960449 10.79513931274414 20.54869651794434 10.39368915557861 20.16396522521973 10.11390972137451 L 13.76907730102539 5.463039875030518 L 7.375015735626221 10.11395931243896 C 6.990035533905029 10.39391994476318 6.769235610961914 10.79570960998535 6.769235610961914 11.21629905700684 L 6.769235610961914 19.17957878112793 L 9.769266128540039 19.17957878112793 L 9.769266128540039 15.87185955047607 C 9.769266128540039 14.26006984710693 11.11505603790283 12.94877910614014 12.76926612854004 12.94877910614014 L 14.76928520202637 12.94877910614014 C 16.42349624633789 12.94877910614014 17.76928520202637 14.26006984710693 17.76928520202637 15.87185955047607 L 17.76928520202637 19.17957878112793 L 20.76931571960449 19.17957878112793 M 21.51931571960449 21.17957878112793 L 17.01929473876953 21.17957878112793 C 16.32878494262695 21.17957878112793 15.76928520202637 20.66310882568359 15.76928520202637 20.02571868896484 L 15.76928520202637 15.87185955047607 C 15.76928520202637 15.36184978485107 15.32178592681885 14.94877910614014 14.76928520202637 14.94877910614014 L 12.76926612854004 14.94877910614014 C 12.21676540374756 14.94877910614014 11.76926612854004 15.36184978485107 11.76926612854004 15.87185955047607 L 11.76926612854004 20.02571868896484 C 11.76926612854004 20.66310882568359 11.20976543426514 21.17957878112793 10.51925563812256 21.17957878112793 L 6.019235610961914 21.17957878112793 C 5.328735828399658 21.17957878112793 4.769235610961914 20.66310882568359 4.769235610961914 20.02571868896484 L 4.769235610961914 11.21629905700684 C 4.769235610961914 10.1552095413208 5.29623556137085 9.152749061584473 6.19873571395874 8.496439933776855 L 13.30477523803711 3.327639579772949 C 13.5772762298584 3.130099296569824 13.96127605438232 3.130099296569824 14.23327541351318 3.327639579772949 L 21.3403148651123 8.496439933776855 C 22.2428150177002 9.152749061584473 22.76931571960449 10.15474987030029 22.76931571960449 11.21536922454834 L 22.76931571960449 20.02571868896484 C 22.76931571960449 20.66310882568359 22.20981597900391 21.17957878112793 21.51931571960449 21.17957878112793 Z" stroke="none" fill="#000"/>
  </g>
</svg>
