<svg xmlns="http://www.w3.org/2000/svg" width="34.127" height="34.127" viewBox="0 0 34.127 34.127">
  <g id="Group_534" data-name="Group 534" transform="translate(1 1)">
    <path id="Path_277" data-name="Path 277" d="M28.37,21.944a2.41,2.41,0,0,0,.482,2.658l.088.088a2.922,2.922,0,1,1-4.133,4.133l-.088-.088A2.429,2.429,0,0,0,20.6,30.458v.248a2.921,2.921,0,0,1-5.841,0v-.131a2.41,2.41,0,0,0-1.577-2.205,2.41,2.41,0,0,0-2.658.482l-.088.088A2.922,2.922,0,1,1,6.3,24.807l.088-.088A2.429,2.429,0,0,0,4.669,20.6H4.421a2.921,2.921,0,1,1,0-5.841h.131a2.41,2.41,0,0,0,2.205-1.577,2.41,2.41,0,0,0-.482-2.658l-.088-.088A2.922,2.922,0,1,1,10.32,6.3l.088.088a2.41,2.41,0,0,0,2.658.482h.117a2.41,2.41,0,0,0,1.46-2.205V4.421a2.921,2.921,0,1,1,5.841,0v.131A2.429,2.429,0,0,0,24.6,6.275l.088-.088a2.922,2.922,0,1,1,4.133,4.133l-.088.088a2.41,2.41,0,0,0-.482,2.658v.117a2.41,2.41,0,0,0,2.205,1.46h.248a2.921,2.921,0,0,1,0,5.841h-.131a2.41,2.41,0,0,0-2.205,1.46Z" transform="translate(-1.5 -1.5)" fill="#f4e294" stroke="#575757" stroke-linecap="round" stroke-linejoin="round" stroke-width="2"/>
    <path id="Path_276" data-name="Path 276" d="M22.262,17.881A4.381,4.381,0,1,1,17.881,13.5,4.381,4.381,0,0,1,22.262,17.881Z" transform="translate(-1.817 -1.664)" fill="#f4e294" stroke="#575757" stroke-linecap="round" stroke-linejoin="round" stroke-width="2"/>
  </g>
</svg>
